<svg width="341" height="196" viewBox="0 0 341 196" fill="none" xmlns="http://www.w3.org/2000/svg">
<path d="M26.8659 88.9938C26.8659 50.5029 58.0689 19.2999 96.5598 19.2999C110.826 19.2999 124.091 23.5862 135.137 30.9413C140.987 26.9374 147.339 23.6139 154.08 21.0847C138.568 7.93247 118.49 0 96.5598 0C47.4099 0 7.56604 39.8439 7.56604 88.9938C7.56604 91.2299 7.64851 93.4468 7.81058 95.6415H27.1788C26.9718 93.4535 26.8659 91.236 26.8659 88.9938Z" fill="white"/>
<path d="M154.08 21.0847C147.339 23.6139 140.987 26.9374 135.137 30.9413C140.731 34.6662 145.756 39.1782 150.054 44.3191C155.771 40.9564 162.009 38.3859 168.619 36.7584C164.414 30.9682 159.529 25.7044 154.08 21.0847Z" fill="white"/>
<path d="M185.339 15.4399C174.339 15.4399 163.805 17.4356 154.08 21.0847C159.529 25.7044 164.414 30.9682 168.619 36.7584C173.975 35.4394 179.576 34.7397 185.339 34.7397C202.987 34.7397 219.102 41.299 231.381 52.1125C237.431 48.5447 243.942 45.8358 250.786 44.1291C234.525 26.4896 211.222 15.4399 185.339 15.4399Z" fill="white"/>
<path fill-rule="evenodd" clip-rule="evenodd" d="M319.314 95.6415C308.588 74.5297 288.7 61.3307 267.9 61.3307C266.372 61.3307 264.849 61.4019 263.334 61.5422C259.856 55.231 255.634 49.3873 250.786 44.1291C256.297 42.7552 262.023 42.0308 267.9 42.0308C300.333 42.0308 328.197 64.0961 340.331 95.6415H319.314Z" fill="white"/>
<path d="M250.786 44.1291C243.942 45.8358 237.431 48.5447 231.381 52.1125C236.344 56.4832 240.68 61.5489 244.237 67.1574C250.265 64.0847 256.721 62.1549 263.334 61.5422C259.856 55.231 255.634 49.3873 250.786 44.1291Z" fill="white"/>
<path d="M27.5194 168.138C23.4185 168.138 19.5694 167.095 15.972 165.008C12.3747 162.922 9.42495 159.72 7.12267 155.403C4.89234 151.015 3.77717 145.511 3.77717 138.892C3.77717 132.704 4.89234 127.452 7.12267 123.136C9.42495 118.819 12.4467 115.545 16.1879 113.315C20.001 111.013 24.1379 109.861 28.5986 109.861C31.4764 109.861 34.2823 110.509 37.0163 111.804C39.8222 113.027 42.1245 114.61 43.9231 116.552V111.48H62.4852V166.519H43.9231V157.346C42.5562 160.368 40.4697 162.922 37.6638 165.008C34.8579 167.095 31.4764 168.138 27.5194 168.138ZM33.0233 149.36C34.6061 149.36 36.2249 148.964 37.8797 148.173C39.5344 147.309 40.9374 146.05 42.0885 144.396C43.3116 142.669 43.9231 140.475 43.9231 137.813V132.525C42.3403 131.23 40.5417 130.15 38.5272 129.287C36.5846 128.424 34.5701 127.992 32.4837 127.992C30.685 127.992 29.0663 128.496 27.6273 129.503C26.2603 130.51 25.1812 131.841 24.3897 133.496C23.5983 135.151 23.2026 136.949 23.2026 138.892C23.2026 140.834 23.5983 142.597 24.3897 144.18C25.2531 145.763 26.4042 147.022 27.8432 147.957C29.354 148.892 31.0807 149.36 33.0233 149.36ZM87.5398 166.519V88.8172H106.102V166.519H87.5398ZM131.156 166.519V88.8172H149.719V166.519H131.156ZM188.695 103.063C185.529 103.063 182.795 101.983 180.493 99.825C178.19 97.5947 177.039 94.9327 177.039 91.839C177.039 88.6734 178.19 86.0113 180.493 83.853C182.795 81.6946 185.529 80.6154 188.695 80.6154C190.709 80.6154 192.58 81.119 194.306 82.1263C196.105 83.1335 197.544 84.5005 198.623 86.2272C199.702 87.8819 200.242 89.7525 200.242 91.839C200.242 93.8535 199.702 95.7241 198.623 97.4508C197.544 99.1775 196.105 100.544 194.306 101.552C192.58 102.559 190.709 103.063 188.695 103.063ZM181.032 166.519V111.48H199.594V166.519H181.032ZM172.075 126.589V111.48H199.594V126.589H172.075ZM229.182 166.519V108.674C229.182 104.502 230.117 100.832 231.988 97.6666C233.858 94.429 236.412 91.875 239.65 90.0044C242.887 88.1338 246.557 87.1985 250.658 87.1985C253.392 87.1985 255.73 87.4503 257.672 87.9539C259.687 88.4575 261.414 89.105 262.852 89.8964V105.005C261.773 104.43 260.55 103.998 259.183 103.71C257.888 103.35 256.413 103.171 254.758 103.171C253.104 103.171 251.521 103.71 250.01 104.789C248.499 105.797 247.744 107.343 247.744 109.43V166.519H229.182ZM220.98 126.049V111.48H260.262V126.049H220.98ZM279.705 192.42L303.555 150.331L319.204 111.48H339.924L300.426 192.42H279.705ZM300.318 168.677L273.877 111.48H295.245L313.16 154.648L300.318 168.677Z" fill="white"/>
<path d="M0 180.009H278.284V185.405H0V180.009ZM311.873 180.009H340.464V185.405H311.873V180.009Z" fill="white"/>
</svg>
